<?xml version="1.0" encoding="utf-8"?>
<svg viewBox="0 0 612.33997 467.13" xmlns="http://www.w3.org/2000/svg">
  <path d="M 297.82 85.353 C 291.694 93.338 286.982 102.224 283.87 111.658 C 281.093 119.892 279.019 128.326 277.67 136.878 C 277.01 136.631 276.36 136.364 275.72 136.069 C 255.709 126.827 253.714 100.435 272.129 88.562 C 276.911 85.479 282.554 83.831 288.33 83.83 C 290.787 83.826 293.233 84.124 295.61 84.715 C 296.36 84.896 297.1 85.105 297.82 85.353 Z" style="fill: rgb(156, 39, 176);"/>
  <path d="M 30.137 403.205 C 32.124 387.998 42.027 373.015 57.265 368.066 C 51.256 383.718 51.257 400.889 57.269 416.541 C 59.611 422.569 62.875 429.041 60.672 435.117 C 59.302 438.897 55.949 441.789 52.202 443.598 C 48.454 445.406 44.295 446.268 40.187 447.113 L 39.379 447.749 C 32.859 433.738 28.15 418.412 30.137 403.205 Z" fill="#e6e6e6" style=""/>
  <path d="M 57.417 368.353 C 48.542 377.817 43.027 389.7 41.653 402.317 C 41.307 405.028 41.411 407.774 41.964 410.454 C 42.59 413.048 43.935 415.435 45.859 417.367 C 47.614 419.203 49.634 420.888 50.89 423.098 C 52.155 425.404 52.325 428.115 51.358 430.548 C 50.249 433.576 48.063 436.043 45.838 438.386 C 43.366 440.986 40.756 443.651 39.706 447.099 C 39.578 447.516 38.905 447.304 39.032 446.887 C 40.859 440.888 46.978 437.48 49.896 432.077 C 51.258 429.556 51.829 426.629 50.553 423.968 C 49.437 421.64 47.356 419.902 45.561 418.058 C 43.656 416.199 42.257 413.925 41.488 411.433 C 40.794 408.788 40.579 406.051 40.85 403.337 C 41.359 397.219 42.875 391.215 45.343 385.545 C 48.122 379.059 52.047 373.073 56.947 367.847 C 57.251 367.523 57.718 368.032 57.417 368.353 L 57.417 368.353 Z" fill="#fff" style=""/>
  <path d="M 41.844 398.23 C 37.315 397.183 34.249 393.168 34.602 388.745 C 34.638 388.312 35.347 388.345 35.311 388.779 C 34.974 392.899 37.841 396.637 42.067 397.588 C 42.511 397.689 42.286 398.33 41.844 398.23 L 41.844 398.23 Z" fill="#fff" style=""/>
  <path d="M 44.84 416.548 C 48.8 414.298 51.724 410.709 53.028 406.498 C 53.157 406.08 53.831 406.293 53.702 406.71 C 52.337 411.089 49.286 414.818 45.159 417.152 C 44.765 417.374 44.448 416.769 44.84 416.548 L 44.84 416.548 Z" fill="#fff" style=""/>
  <path d="M 48.781 379.699 C 50.417 380.439 52.335 380.346 53.884 379.452 C 54.274 379.225 54.591 379.83 54.203 380.055 C 52.487 381.035 50.373 381.142 48.558 380.34 C 48.376 380.277 48.278 380.09 48.332 379.914 C 48.395 379.737 48.595 379.641 48.781 379.699 L 48.781 379.699 Z" fill="#fff" style=""/>
  <path d="M 103.716 395.227 C 103.476 395.376 103.237 395.524 102.997 395.678 C 99.787 397.686 96.755 399.939 93.929 402.415 C 93.707 402.603 93.486 402.797 93.27 402.991 C 86.529 409.025 81.023 416.198 77.033 424.145 C 75.448 427.308 74.119 430.582 73.056 433.938 C 71.588 438.572 70.384 443.708 67.48 447.498 C 67.181 447.897 66.857 448.278 66.509 448.638 L 40.257 448.638 C 40.198 448.61 40.138 448.587 40.078 448.559 L 39.03 448.604 C 39.072 448.427 39.119 448.245 39.162 448.068 C 39.186 447.966 39.215 447.863 39.239 447.761 C 39.257 447.692 39.275 447.624 39.287 447.561 C 39.293 447.538 39.299 447.515 39.305 447.498 C 39.317 447.436 39.335 447.379 39.347 447.322 C 39.611 446.301 39.882 445.281 40.162 444.261 C 40.162 444.255 40.162 444.255 40.168 444.249 C 42.219 436.455 45.235 428.92 49.152 421.802 C 49.272 421.591 49.391 421.374 49.523 421.163 C 51.337 418.012 53.418 415.008 55.746 412.18 C 57.026 410.635 58.388 409.153 59.825 407.739 C 63.547 404.093 67.848 401.027 72.571 398.653 C 81.986 393.922 92.887 392.109 102.949 394.999 C 103.207 395.074 103.458 395.148 103.716 395.227 Z" fill="#e6e6e6" style=""/>
  <path d="M 103.657 395.545 C 90.584 398.015 78.662 404.344 69.584 413.63 C 67.592 415.596 65.939 417.849 64.684 420.305 C 63.544 422.735 63.107 425.412 63.421 428.057 C 63.661 430.529 64.208 433.031 63.813 435.515 C 63.364 438.081 61.785 440.343 59.474 441.732 C 56.673 443.514 53.367 444.232 50.108 444.827 C 46.489 445.487 42.72 446.119 39.699 448.27 C 39.334 448.531 38.93 447.975 39.295 447.715 C 44.55 443.972 51.591 444.757 57.339 442.115 C 60.021 440.883 62.329 438.873 62.994 436.017 C 63.575 433.519 63.013 430.938 62.747 428.438 C 62.401 425.862 62.723 423.244 63.686 420.814 C 64.805 418.305 66.364 415.996 68.298 413.985 C 72.574 409.391 77.583 405.466 83.141 402.353 C 89.463 398.767 96.383 396.236 103.602 394.871 C 104.049 394.787 104.101 395.461 103.657 395.545 L 103.657 395.545 Z" fill="#fff" style=""/>
  <path d="M 72.322 410.476 C 69.368 407.045 69.46 402.083 72.54 398.754 C 72.843 398.429 73.388 398.861 73.085 399.187 C 70.21 402.283 70.134 406.911 72.906 410.092 C 73.197 410.426 72.612 410.809 72.322 410.476 L 72.322 410.476 Z" fill="#fff" style=""/>
  <path d="M 63.126 426.819 C 67.712 427.291 72.317 426.101 76.022 423.486 C 76.389 423.227 76.792 423.782 76.426 424.041 C 72.565 426.756 67.77 427.985 62.999 427.484 C 62.544 427.436 62.673 426.771 63.126 426.819 L 63.126 426.819 Z" fill="#fff" style=""/>
  <path d="M 89.584 399.655 C 90.422 401.183 92.012 402.208 93.815 402.382 C 94.27 402.425 94.14 403.089 93.688 403.047 C 91.698 402.846 89.943 401.719 89.001 400.039 C 88.896 399.885 88.935 399.679 89.09 399.57 C 89.252 399.464 89.472 399.502 89.584 399.655 Z" fill="#fff" style=""/>
  <path d="M 307.113 412.575 C 296.205 401.303 290.592 384.427 296.473 370.162 C 305.139 384.643 318.907 395.74 335.342 401.49 C 341.689 403.685 348.988 405.499 352.436 411.025 C 354.581 414.463 354.733 418.768 353.761 422.658 C 352.788 426.548 350.791 430.126 348.814 433.655 L 348.802 434.653 C 333.353 430.332 318.022 423.846 307.113 412.575 Z" fill="#e6e6e6" style=""/>
  <path d="M 296.802 370.238 C 298.653 382.799 304.617 394.485 313.845 403.637 C 315.795 405.641 318.064 407.34 320.57 408.671 C 323.054 409.893 325.838 410.459 328.63 410.311 C 331.237 410.222 333.892 409.844 336.476 410.361 C 339.143 410.933 341.426 412.561 342.753 414.836 C 344.463 417.598 345.029 420.78 345.468 423.911 C 345.956 427.386 346.405 431.004 348.491 433.995 C 348.744 434.358 348.138 434.71 347.886 434.348 C 344.257 429.143 345.48 422.497 343.034 416.886 C 341.892 414.268 339.915 411.961 336.956 411.168 C 334.369 410.474 331.63 410.861 328.991 410.973 C 326.269 411.155 323.542 410.701 321.047 409.649 C 318.478 408.444 316.144 406.831 314.144 404.88 C 309.567 400.556 305.733 395.575 302.782 390.117 C 299.378 383.907 297.115 377.188 296.092 370.252 C 296.029 369.822 296.739 369.811 296.802 370.238 L 296.802 370.238 Z" fill="#fff" style=""/>
  <path d="M 310.691 400.857 C 306.925 403.47 301.724 403.101 298.406 399.986 C 298.082 399.68 298.567 399.186 298.891 399.493 C 301.977 402.4 306.827 402.735 310.321 400.281 C 310.688 400.023 311.057 400.601 310.691 400.857 Z" fill="#fff" style=""/>
  <path d="M 327.315 410.521 C 328.07 406.19 327.082 401.747 324.549 398.079 C 324.298 397.715 324.903 397.363 325.154 397.726 C 327.783 401.549 328.801 406.174 328.005 410.679 C 327.929 411.109 327.239 410.948 327.315 410.521 Z" fill="#fff" style=""/>
  <path d="M 300.317 383.842 C 301.968 383.132 303.133 381.68 303.417 379.977 C 303.488 379.547 304.177 379.708 304.107 380.135 C 303.784 382.014 302.503 383.619 300.687 384.418 C 300.519 384.51 300.305 384.461 300.199 384.307 C 300.098 384.147 300.15 383.94 300.317 383.842 L 300.317 383.842 Z" fill="#fff" style=""/>
  <path d="M 348.273 353.985 C 348.237 354.254 348.201 354.524 348.17 354.798 C 347.706 358.427 347.552 362.085 347.711 365.738 C 347.719 366.02 347.731 366.306 347.747 366.588 C 348.227 375.384 350.42 384.018 354.213 392.052 C 355.725 395.248 357.49 398.329 359.494 401.27 C 362.261 405.331 365.601 409.524 366.763 414.084 C 366.889 414.558 366.985 415.04 367.049 415.525 L 350.082 434.59 C 350.021 434.615 349.964 434.643 349.902 434.668 L 349.261 435.459 C 349.147 435.314 349.031 435.162 348.917 435.017 C 348.85 434.933 348.787 434.845 348.72 434.762 C 348.677 434.704 348.634 434.647 348.591 434.598 C 348.577 434.579 348.563 434.56 348.553 434.544 C 348.51 434.495 348.476 434.445 348.438 434.4 C 347.79 433.549 347.148 432.692 346.51 431.83 C 346.506 431.826 346.506 431.826 346.505 431.818 C 341.582 425.291 337.489 418.23 334.314 410.785 C 334.222 410.562 334.126 410.335 334.042 410.103 C 332.688 406.749 331.624 403.296 330.861 399.777 C 330.45 397.849 330.142 395.903 329.937 393.945 C 329.42 388.886 329.741 383.781 330.89 378.817 C 333.182 368.921 338.774 359.834 347.595 354.394 C 347.821 354.255 348.043 354.12 348.273 353.985 Z" fill="#e6e6e6" style=""/>
  <path d="M 348.489 354.232 C 342.021 365.323 339.39 378.071 340.968 390.666 C 341.257 393.383 341.995 396.039 343.153 398.538 C 344.364 400.937 346.228 402.984 348.552 404.466 C 350.689 405.889 353.048 407.109 354.785 409.001 C 356.552 410.986 357.345 413.595 356.965 416.171 C 356.583 419.356 355.022 422.221 353.393 424.973 C 351.583 428.028 349.653 431.173 349.426 434.757 C 349.399 435.191 348.692 435.125 348.72 434.691 C 349.115 428.457 354.296 423.851 355.893 417.969 C 356.638 415.224 356.518 412.249 354.657 409.921 C 353.03 407.884 350.598 406.624 348.421 405.201 C 346.133 403.787 344.242 401.862 342.916 399.592 C 341.627 397.158 340.784 394.533 340.421 391.829 C 339.502 385.754 339.592 379.58 340.688 373.532 C 341.899 366.623 344.343 359.962 347.914 353.837 C 348.135 353.458 348.709 353.856 348.489 354.232 L 348.489 354.232 Z" fill="#fff" style=""/>
  <path d="M 340.209 386.639 C 335.549 386.567 331.63 383.292 330.951 378.904 C 330.886 378.474 331.586 378.357 331.651 378.788 C 332.275 382.877 335.936 385.924 340.278 385.966 C 340.734 385.971 340.663 386.644 340.209 386.639 Z" fill="#fff" style=""/>
  <path d="M 347.368 403.88 C 350.711 400.855 352.733 396.742 353.031 392.361 C 353.06 391.927 353.767 391.992 353.738 392.426 C 353.419 396.984 351.305 401.261 347.819 404.402 C 347.487 404.701 347.038 404.178 347.368 403.88 L 347.368 403.88 Z" fill="#fff" style=""/>
  <path d="M 342.689 367.109 C 344.457 367.488 346.306 366.996 347.61 365.799 C 347.939 365.496 348.387 366.02 348.061 366.321 C 346.614 367.636 344.576 368.183 342.621 367.781 C 342.429 367.757 342.289 367.596 342.302 367.412 C 342.322 367.227 342.495 367.092 342.689 367.109 L 342.689 367.109 Z" fill="#fff" style=""/>
  <circle cx="200.72836" cy="367.51679" r="17.49161" fill="#f2f2f2" style="" transform="matrix(1, 0, 0, 0.951707, 0, 22.558926)"/>
  <circle cx="187.72836" cy="209.91851" r="6.50655" fill="#9c27b0" style="" transform="matrix(1, 0, 0, 0.951707, 0, 22.558926)"/>
  <circle cx="98.25138" cy="282.53813" r="6.50655" fill="#f0f0f0" style="" transform="matrix(1, 0, 0, 0.951707, 0, 22.558926)"/>
  <path id="a53fb1f8-3aef-4d80-830f-cc7df7624a2a-222" data-name="Path 155" d="M 17.974 153.922 C 16.586 153.926 15.463 155.641 15.466 157.753 C 15.468 159.859 16.59 161.565 17.974 161.569 L 206.458 161.569 C 207.846 161.565 208.969 159.85 208.966 157.738 C 208.963 155.632 207.842 153.926 206.458 153.922 L 17.974 153.922 Z" fill="#e6e6e6" style=""/>
  <path id="bb62af06-a55e-49de-a8ab-ddae6c01ce32-223" data-name="Path 156" d="M 17.974 176.08 C 16.586 176.084 15.463 177.799 15.466 179.911 C 15.468 182.017 16.59 183.723 17.974 183.727 L 206.458 183.727 C 207.846 183.723 208.969 182.008 208.966 179.896 C 208.963 177.79 207.842 176.084 206.458 176.08 L 17.974 176.08 Z" fill="#e6e6e6" style=""/>
  <path id="be19a32e-edc4-40d3-83d1-fa4636256d4d-224" data-name="Path 157" d="M 17.974 197.969 C 16.586 197.974 15.463 199.689 15.466 201.801 C 15.468 203.907 16.59 205.613 17.974 205.617 L 138.958 205.617 C 140.346 205.613 141.469 203.898 141.466 201.786 C 141.463 199.68 140.342 197.974 138.958 197.969 L 17.974 197.969 Z" fill="#e6e6e6" style=""/>
  <path d="M 4.413 442.614 C 4.476 442.476 4.549 442.345 4.615 442.209 C 4.731 441.068 4.413 442.614 4.413 442.614 Z" fill="#f2f2f2" style=""/>
  <path d="M 38.656 425.378 C 36.269 425.377 33.885 425.541 31.523 425.869 L 31.182 425.916 C 15.543 428.301 4.215 441.392 4.754 456.456 L 4.844 459.195 C 4.904 460.927 4.967 462.788 5.02 464.854 C 5.033 465.854 5.89 466.657 6.941 466.654 L 389.02 466.654 C 415.958 466.384 442.799 466.045 468.792 465.645 C 473.687 465.661 478.573 465.243 483.387 464.399 C 490.611 462.99 495.624 460.197 498.716 455.861 L 498.717 455.861 C 502.562 450.483 502.683 443.712 502.45 436.061 C 501.977 420.612 501.507 404.383 501.038 388.203 C 500.624 373.943 500.212 359.722 499.8 346.106 C 499.545 338.026 498.979 330.893 494.613 325.442 C 489.88 319.547 481.249 316.559 468.959 316.559 C 468.811 316.559 468.663 316.559 468.513 316.56 C 429.997 316.786 391.834 338.612 373.55 370.872 C 371.445 374.586 369.483 378.563 367.585 382.41 C 364.884 388.182 361.825 393.795 358.424 399.221 C 356.651 401.977 354.626 404.578 352.372 406.996 C 352.224 407.165 352.054 407.346 351.874 407.518 C 351.463 407.959 351.034 408.385 350.615 408.764 C 348.306 410.991 345.713 412.934 342.897 414.547 L 342.626 414.697 C 342.423 414.816 342.202 414.936 341.981 415.046 C 340.45 415.858 338.856 416.56 337.215 417.146 C 330.245 419.677 322.32 420.284 313.66 418.948 C 305.443 417.6 297.525 414.941 290.24 411.082 C 282.221 406.905 274.715 401.698 267.456 396.662 C 264.267 394.45 260.97 392.162 257.676 389.995 C 257.057 389.587 256.448 389.188 255.83 388.789 C 251.807 386.206 248.16 384.072 244.681 382.266 C 236.483 377.901 227.449 375.144 218.113 374.156 C 208.534 373.292 200.092 374.922 193.029 378.99 C 191.008 380.159 189.108 381.508 187.355 383.019 C 178.989 390.179 173.831 400.746 168.844 410.966 C 162.639 423.677 156.224 436.823 143.556 443.637 C 128.938 451.507 107.601 448.238 92.506 442.552 C 87.76 440.763 83.019 438.707 78.435 436.717 C 76.583 435.913 74.732 435.11 72.876 434.322 C 69.233 432.772 66.251 431.584 63.492 430.581 L 62.619 430.261 C 62.134 430.087 61.648 429.914 61.154 429.748 C 58.097 428.678 54.981 427.768 51.821 427.02 L 51.11 426.849 C 49.684 426.54 48.352 426.282 47.044 426.066 L 46.522 425.98 C 43.922 425.577 41.291 425.376 38.656 425.378 Z" fill="#e6e6e6" style=""/>
  <path d="M 252.761 425.828 C 246.402 403.067 260.523 380.883 277.023 365.525 C 285.817 357.34 295.61 350.226 305.16 342.876 C 314.324 335.901 323.05 328.422 331.295 320.476 C 347.216 304.968 361.103 287.244 370.3 267.322 C 379.046 248.377 383.18 227.74 381.132 207.069 C 379.19 187.464 371.806 168.179 358.224 153.138 C 356.531 151.263 354.751 149.467 352.883 147.748 C 351.881 146.822 350.345 148.28 351.349 149.208 C 366.516 163.224 375.345 182.219 378.332 201.98 C 381.413 222.359 378.239 243.134 370.232 262.187 C 361.702 282.483 348.138 300.594 332.408 316.398 C 324.486 324.307 316.059 331.742 307.175 338.663 C 297.687 346.101 287.828 353.129 278.794 361.078 C 262.143 375.728 247.178 395.88 249.234 418.564 C 249.473 421.203 249.953 423.817 250.669 426.377 C 250.919 427.135 251.938 427.352 252.504 426.767 C 252.748 426.514 252.845 426.162 252.761 425.828 L 252.761 425.828 Z" fill="#e6e6e6" style=""/>
  <path d="M 319.35 296.251 C 319.748 296.95 319.202 297.797 318.366 297.776 C 318.006 297.766 317.674 297.587 317.48 297.298 C 314.99 293.234 312.64 289.1 310.43 284.897 C 308.94 282.042 307.51 279.149 306.17 276.227 C 291.128 243.774 284.686 208.304 287.41 172.929 C 288.151 163.251 289.618 153.637 291.8 144.159 C 292.25 142.236 292.73 140.314 293.26 138.41 C 294.06 138.287 294.84 138.125 295.61 137.934 C 290.91 154.152 289.02 171.254 288.96 187.985 C 288.891 206.91 291.449 225.762 296.57 244.05 C 301.668 262.344 309.33 279.902 319.35 296.251 Z" fill="#e6e6e6" style=""/>
  <path d="M 461.79 240.291 C 453.66 256.936 440 270.602 424.68 281.49 C 407.31 293.834 387.64 302.742 368.15 311.583 C 366.9 312.154 365.8 310.374 367.06 309.803 C 371.71 307.69 376.36 305.578 380.98 303.427 C 399.46 294.795 417.78 285.297 433.25 272.22 C 447.56 260.124 459.22 245.059 464.54 227.385 C 470.09 208.989 469.04 189.098 463.07 170.921 C 459.366 159.882 454.05 149.393 447.28 139.762 C 445.04 136.535 442.67 133.398 440.17 130.349 C 438.35 128.132 436.47 125.959 434.53 123.83 C 428.19 116.909 421.296 110.466 413.91 104.558 C 406.227 98.25 397.724 92.908 388.61 88.665 C 379.247 84.33 369.01 81.973 358.6 81.755 C 348.763 81.626 339.076 84.061 330.59 88.798 C 324.788 92.087 319.575 96.238 315.15 101.094 C 314.86 100.399 314.54 99.714 314.18 99.048 C 321.82 91.006 331.35 84.686 342.44 81.689 C 362.93 76.15 384.56 82.65 401.85 93.404 C 410.286 98.762 418.165 104.874 425.38 111.658 C 428.07 114.142 430.69 116.702 433.21 119.338 C 436.25 122.498 439.153 125.768 441.92 129.15 C 441.92 129.15 441.94 129.16 441.94 129.169 C 442.87 130.302 443.783 131.45 444.68 132.614 C 456.37 147.747 465.1 165.115 468.58 183.683 C 472.14 202.67 470.38 222.693 461.79 240.291 Z" fill="#e6e6e6" style=""/>
  <path d="M 448.05 220.343 C 439.93 236.988 426.27 250.655 410.94 261.542 C 394.33 273.334 375.62 282.004 356.98 290.465 C 356.13 290.855 355.27 291.235 354.42 291.626 C 354.143 291.76 353.818 291.774 353.53 291.664 C 352.762 291.453 352.521 290.529 353.097 290.001 C 353.164 289.94 353.239 289.888 353.32 289.846 C 354.04 289.513 354.77 289.189 355.49 288.866 C 356.73 288.295 357.96 287.733 359.2 287.172 C 361.89 285.953 364.573 284.719 367.25 283.469 C 385.72 274.847 404.05 265.339 419.51 252.263 C 433.83 240.167 445.49 225.101 450.81 207.428 C 456.35 189.032 455.3 169.15 449.33 150.973 C 446.966 143.839 443.899 136.934 440.17 130.349 C 438.04 126.581 435.71 122.897 433.21 119.338 C 429.425 113.933 425.276 108.768 420.79 103.873 C 414.456 96.953 407.565 90.512 400.18 84.61 C 392.495 78.301 383.988 72.959 374.87 68.717 C 365.511 64.379 355.277 62.019 344.87 61.798 C 335.03 61.669 325.34 64.104 316.85 68.84 C 309.42 73.09 302.951 78.703 297.82 85.353 C 291.694 93.338 286.982 102.224 283.87 111.658 C 281.093 119.892 279.019 128.326 277.67 136.878 C 276.044 147.189 275.225 157.601 275.22 168.027 C 275.156 186.956 277.714 205.81 282.83 224.102 C 287.934 242.394 295.596 259.952 305.61 276.303 C 305.637 276.346 305.661 276.39 305.68 276.436 C 305.967 277.184 305.297 277.947 304.473 277.81 C 304.17 277.759 303.904 277.589 303.74 277.341 C 301.25 273.286 298.903 269.153 296.7 264.94 C 278.645 230.247 270.692 191.582 273.67 152.971 C 274.11 147.318 274.793 141.684 275.72 136.069 C 276.37 132.091 277.153 128.135 278.07 124.201 C 280.191 114.539 283.567 105.166 288.12 96.297 C 290.265 92.24 292.771 88.365 295.61 84.715 C 303.9 74.046 315.14 65.405 328.71 61.741 C 349.2 56.192 370.82 62.692 388.12 73.447 C 396.552 78.809 404.431 84.921 411.65 91.7 C 418.679 98.165 425.131 105.175 430.94 112.657 C 435.002 117.903 438.671 123.414 441.92 129.15 C 441.92 129.15 441.94 129.16 441.94 129.169 C 443.89 132.624 445.68 136.155 447.28 139.762 C 450.736 147.455 453.271 155.493 454.84 163.726 C 458.41 182.722 456.65 202.736 448.05 220.343 Z" fill="#e6e6e6" style=""/>
  <path d="M 381.164 227.522 C 390.73 227.465 399.979 224.252 407.333 218.43 C 414.821 212.438 419.749 204.047 421.189 194.838 C 422.035 189.632 421.762 184.317 420.388 179.213 C 420.138 178.455 419.119 178.238 418.553 178.823 C 418.309 179.076 418.213 179.428 418.297 179.762 C 420.615 188.427 419.569 197.597 415.351 205.586 C 408.746 217.764 395.564 225.426 381.164 225.458 C 380.329 225.485 379.839 226.362 380.281 227.036 C 380.472 227.328 380.803 227.51 381.164 227.522 L 381.164 227.522 Z" fill="#e6e6e6" style=""/>
  <path d="M 299.722 344.841 L 292.741 333.146 C 292.295 332.474 291.252 332.513 290.863 333.217 C 290.695 333.521 290.697 333.885 290.868 334.188 L 297.85 345.883 C 298.296 346.555 299.339 346.515 299.728 345.812 C 299.896 345.507 299.894 345.143 299.722 344.841 Z" fill="#e6e6e6" style=""/>
  <path d="M 258.965 106.267 C 256.876 104.863 254.59 103.4 252.034 103.459 C 245.847 103.6 242.511 112.232 236.331 111.928 C 232.39 111.735 229.773 107.924 226.103 106.542 C 221.325 104.744 215.245 108.261 214.724 113.126 L 215.338 112.592 C 233.91 116.901 253.183 117.748 272.094 115.087 C 267.718 112.147 263.341 109.207 258.965 106.267 Z" fill="#e6e6e6" style=""/>
  <circle cx="233.39726" cy="450.64382" r="6.24672" fill="#fff" style="" transform="matrix(1, 0, 0, 0.951707, 0, 22.558926)"/>
  <circle cx="251.51275" cy="450.64382" r="6.24672" fill="#fff" style="" transform="matrix(1, 0, 0, 0.951707, 0, 22.558926)"/>
  <circle cx="269.62823" cy="450.64382" r="6.24672" fill="#fff" style="" transform="matrix(1, 0, 0, 0.951707, 0, 22.558926)"/>
  <circle cx="251.57003" cy="450.64382" r="4.99738" fill="#3f3d56" style="" transform="matrix(1, 0, 0, 0.951707, 0, 22.558926)"/>
  <polygon points="544.924 453.527 538.077 453.527 534.819 428.392 544.924 428.392 544.924 453.527" fill="#ffb6b6" style=""/>
  <path d="M 548.538 464.817 L 543.628 464.817 L 542.752 460.405 L 540.507 464.817 L 527.483 464.817 C 525.23 464.817 523.821 462.496 524.948 460.638 C 525.165 460.28 525.463 459.973 525.82 459.738 L 536.22 452.903 L 536.22 448.442 L 547.159 449.064 L 548.538 464.817 Z" fill="#2f2e41" style=""/>
  <polygon points="505.569 447.955 499.122 450.152 487.152 427.533 496.667 424.292 505.569 447.955" fill="#ffb6b6" style=""/>
  <path d="M 513.85 454.341 L 509.608 456.696 L 506.515 453.305 L 506.912 458.193 L 495.663 464.438 C 493.717 465.519 491.271 464.189 491.26 462.044 C 491.258 461.631 491.353 461.223 491.537 460.849 L 496.901 449.957 L 494.54 446.104 L 504.318 441.395 L 513.85 454.341 Z" fill="#2f2e41" style=""/>
  <path d="M 546.22 438.17 L 546.138 438.17 L 544.682 392.999 C 546.595 389.488 546.534 385.298 544.519 381.838 L 544.311 381.479 L 544.851 379.095 C 545.545 376.033 545.227 372.841 543.94 369.958 L 542.582 327.823 C 547.433 297.903 524.695 274.476 524.695 274.476 L 488.313 274.476 L 482.25 302.702 L 462.837 373.327 C 461.091 375.852 460.736 379.025 461.885 381.844 L 489.454 433.752 L 489.242 433.854 C 488.404 434.299 488.081 435.291 488.508 436.109 C 488.868 437.102 489.781 437.704 490.547 437.453 L 501.294 432.279 C 502.131 431.835 502.454 430.842 502.027 430.025 C 501.667 429.031 500.754 428.429 499.989 428.681 L 498.745 429.28 L 490.427 390.26 L 490.132 382.298 L 490.739 373.266 L 508.626 334.597 L 519.237 384.556 L 534.875 438.672 C 533.738 439.653 534.142 441.438 535.603 441.885 C 535.802 441.946 536.011 441.977 536.22 441.976 L 546.22 441.976 C 547.76 441.976 548.722 440.39 547.952 439.121 C 547.595 438.532 546.935 438.17 546.22 438.17 Z" fill="#2f2e41" style=""/>
  <path d="M 528.76 254.49 L 527.79 264.807 C 527.79 264.807 527.37 273.372 526.04 275.266 C 524.72 277.15 488.7 277.388 488.7 277.388 C 488.7 277.388 486.32 265.178 484.27 254.49 L 528.76 254.49 Z" fill="#ffb6b6" style=""/>
  <circle cx="510.72253" cy="157.65131" r="18.50774" fill="#ffb6b6" style="" transform="matrix(1, 0, 0, 0.951707, 0, 22.558926)"/>
  <path d="M 520.22 193.581 L 505.366 195.244 C 504.082 195.388 503.035 196.291 502.759 197.493 L 500.396 207.781 L 485.671 224.285 C 485.671 224.285 480.383 233.721 482.366 244.415 C 484.349 255.109 485.22 263.055 485.22 263.055 C 485.22 263.055 524.722 277.151 526.044 275.264 C 527.366 273.377 527.795 264.804 527.795 264.804 L 533.083 208.817 C 533.083 208.817 527.134 199.381 523.829 199.381 C 521.696 199.313 521.969 194.744 520.22 193.581 Z" fill="#9c27b0" style=""/>
  <polygon points="513.661 229.755 507.052 276.306 500.119 276.65 513.661 229.755" opacity="0.2" style="isolation: isolate;"/>
  <ellipse cx="484.818" cy="262.19" rx="3.772" ry="4.307" fill="#9c27b0" style=""/>
  <path d="M 510.659 319.714 C 514.007 316.544 513.53 311.264 509.663 308.685 L 522.045 251.653 L 508.686 255.664 L 498.724 310.837 C 495.68 315.615 499.211 321.737 505.08 321.858 C 507.17 321.901 509.187 321.126 510.659 319.714 Z" fill="#ffb6b6" style=""/>
  <path d="M 520.507 200.914 C 520.507 200.914 529.409 197.247 534.814 206.479 C 540.218 215.712 532.419 247.801 531.324 253.009 C 530.23 258.217 515.22 283.041 515.22 283.041 L 500.22 280.186 L 520.507 200.914 Z" fill="#9c27b0" style=""/>
  <path d="M 502.304 155.759 C 508.722 151.558 514.373 150.919 519.015 152.11 C 519.617 151.224 520.461 150.511 521.457 150.047 C 525.077 141.365 536.095 136.15 545.551 138.685 C 555.068 141.236 561.634 151.269 559.844 160.523 C 558.734 166.259 554.941 171.226 553.415 176.875 C 550.462 187.811 557.666 200.337 568.937 203.862 C 558.266 205.901 546.519 199.698 542.691 190.001 C 540.831 185.291 540.719 180.149 540.483 175.122 C 540.247 170.096 539.821 164.918 537.427 160.432 C 535.823 157.355 533.158 154.895 529.878 153.462 C 530.474 155.216 530.147 157.135 528.999 158.62 C 531.501 161.604 532.864 164.831 532.864 166.763 C 538.063 175.806 530.628 183.573 521.126 188.521 C 517.336 190.505 512.96 191.231 508.688 190.585 L 508.291 188.97 L 507.752 190.425 L 505.954 195.302 C 503.88 196.257 501.824 197.303 499.786 198.442 C 500.56 194.981 501.186 191.527 501.617 188.149 C 502.214 183.552 500.134 176.709 498.633 172.547 C 497.703 169.982 497.225 167.288 497.22 164.574 L 497.22 164.456 L 495.759 168.923 L 490.439 166.763 C 491.429 161.36 490.439 155.227 502.304 155.759 Z" fill="#2f2e41" style=""/>
  <path d="M 612.34 465.997 C 612.338 466.622 611.807 467.129 611.15 467.13 L 385.86 467.13 C 384.944 467.13 384.371 466.186 384.829 465.431 C 385.042 465.081 385.435 464.865 385.86 464.865 L 611.15 464.865 C 611.808 464.863 612.342 465.371 612.34 465.997 Z" fill="#ccc" style=""/>
</svg>